<svg width="100" height="120" viewBox="0 0 100 120" xmlns="http://www.w3.org/2000/svg">
  <defs>
    <linearGradient id="handleGradient" x1="0%" y1="0%" x2="100%" y2="100%">
      <stop offset="0%" style="stop-color:#87CEEB;stop-opacity:1" />
      <stop offset="100%" style="stop-color:#4682B4;stop-opacity:1" />
    </linearGradient>
    <linearGradient id="ferruleGradient" x1="0%" y1="0%" x2="100%" y2="100%">
      <stop offset="0%" style="stop-color:#C0C0C0;stop-opacity:1" />
      <stop offset="100%" style="stop-color:#A0A0A0;stop-opacity:1" />
    </linearGradient>
  </defs>
  
  <!-- Handle - light blue, diagonal -->
  <rect x="45" y="80" width="15" height="40" fill="url(#handleGradient)" rx="3" transform="rotate(-15 52.5 100)"/>
  
  <!-- Ferrule - silver -->
  <rect x="40" y="75" width="25" height="8" fill="url(#ferruleGradient)" rx="2" transform="rotate(-15 52.5 79)"/>
  
  <!-- Brush head - pointed brown -->
  <path d="M20,70 L80,70 Q80,60 75,50 Q70,40 65,30 Q60,20 55,10 Q50,0 45,10 Q40,20 35,30 Q30,40 25,50 Q20,60 20,70 Z" 
        fill="#8B4513" stroke="#654321" stroke-width="1" transform="rotate(-15 50 40)"/>
  
  <!-- Inner brush head for depth -->
  <path d="M25,65 L75,65 Q75,55 70,45 Q65,35 60,25 Q55,15 50,5 Q45,15 40,25 Q35,35 30,45 Q25,55 25,65 Z" 
        fill="#A0522D" transform="rotate(-15 50 35)"/>
</svg> 